<mxfile host="www.draw.io" modified="2020-06-24T02:23:41.741Z" agent="5.0 (Macintosh; Intel Mac OS X 10_14_5) AppleWebKit/537.36 (KHTML, like Gecko) Chrome/81.0.4044.138 Safari/537.36" etag="n3Lwy9sMZ5KovXV0Y339" version="13.3.0" type="github">
  <diagram id="oSIPXB206Z17o7rBIAnr" name="Page-1">
    <mxGraphModel dx="2637" dy="1653" grid="1" gridSize="10" guides="1" tooltips="1" connect="1" arrows="1" fold="1" page="1" pageScale="1" pageWidth="1100" pageHeight="850" math="0" shadow="0">
      <root>
        <mxCell id="0" />
        <mxCell id="1" parent="0" />
        <mxCell id="_1LoRcHpuMIzXkS6uosu-66" value="" style="edgeStyle=none;rounded=0;orthogonalLoop=1;jettySize=auto;html=1;entryX=-0.015;entryY=0.493;entryDx=0;entryDy=0;entryPerimeter=0;" edge="1" parent="1" source="_1LoRcHpuMIzXkS6uosu-1" target="_1LoRcHpuMIzXkS6uosu-123">
          <mxGeometry relative="1" as="geometry">
            <mxPoint x="690.2499999999995" y="624" as="targetPoint" />
          </mxGeometry>
        </mxCell>
        <mxCell id="_1LoRcHpuMIzXkS6uosu-1" value="MERCHANT" style="shape=image;html=1;verticalAlign=top;verticalLabelPosition=bottom;labelBackgroundColor=#ffffff;imageAspect=0;aspect=fixed;image=https://cdn0.iconfinder.com/data/icons/city-elements-filledoutline-1/64/supermarket-shopper-building-shopping_basket-business_and_finance-commerce_and_shopping-128.png" vertex="1" parent="1">
          <mxGeometry x="42.25" y="510" width="228" height="228" as="geometry" />
        </mxCell>
        <mxCell id="_1LoRcHpuMIzXkS6uosu-8" value="" style="rounded=0;orthogonalLoop=1;jettySize=auto;html=1;exitX=1;exitY=0.5;exitDx=0;exitDy=0;strokeColor=#67AB9F;entryX=0.02;entryY=0.658;entryDx=0;entryDy=0;entryPerimeter=0;" edge="1" parent="1" source="_1LoRcHpuMIzXkS6uosu-3" target="_1LoRcHpuMIzXkS6uosu-118">
          <mxGeometry relative="1" as="geometry">
            <mxPoint x="650.25" y="194" as="targetPoint" />
          </mxGeometry>
        </mxCell>
        <mxCell id="_1LoRcHpuMIzXkS6uosu-21" value="&lt;p class=&quot;p1&quot; style=&quot;margin: 0px ; font-stretch: normal ; font-size: 12px ; line-height: normal ; font-family: &amp;#34;helvetica neue&amp;#34;&quot;&gt;&lt;br&gt;&lt;/p&gt;" style="edgeLabel;html=1;align=center;verticalAlign=middle;resizable=0;points=[];labelBackgroundColor=none;" vertex="1" connectable="0" parent="_1LoRcHpuMIzXkS6uosu-8">
          <mxGeometry x="-0.2324" y="-1" relative="1" as="geometry">
            <mxPoint x="23.57" y="-93.78999999999999" as="offset" />
          </mxGeometry>
        </mxCell>
        <mxCell id="_1LoRcHpuMIzXkS6uosu-3" value="Direct Acceptance&lt;br&gt;thru&lt;br&gt;American Express" style="shape=image;html=1;verticalAlign=top;verticalLabelPosition=bottom;labelBackgroundColor=#ffffff;imageAspect=0;aspect=fixed;image=https://cdn1.iconfinder.com/data/icons/ecommerce-free/96/Payment-128.png" vertex="1" parent="1">
          <mxGeometry x="78.25" y="190" width="128" height="128" as="geometry" />
        </mxCell>
        <mxCell id="_1LoRcHpuMIzXkS6uosu-6" value="" style="rounded=0;orthogonalLoop=1;jettySize=auto;html=1;entryX=0;entryY=0.5;entryDx=0;entryDy=0;strokeColor=#67AB9F;" edge="1" parent="1" target="_1LoRcHpuMIzXkS6uosu-3">
          <mxGeometry relative="1" as="geometry">
            <mxPoint x="-167.75" y="0.9879518072289102" as="sourcePoint" />
            <mxPoint x="440.25" y="194" as="targetPoint" />
          </mxGeometry>
        </mxCell>
        <mxCell id="_1LoRcHpuMIzXkS6uosu-10" value="&lt;p class=&quot;p1&quot; style=&quot;margin: 0px ; font-stretch: normal ; font-size: 12px ; line-height: normal ; font-family: &amp;#34;helvetica neue&amp;#34;&quot;&gt;&lt;br&gt;&lt;/p&gt;" style="edgeLabel;html=1;align=center;verticalAlign=middle;resizable=0;points=[];" vertex="1" connectable="0" parent="_1LoRcHpuMIzXkS6uosu-6">
          <mxGeometry x="0.0454" y="-2" relative="1" as="geometry">
            <mxPoint x="22.510000000000005" y="-83.57" as="offset" />
          </mxGeometry>
        </mxCell>
        <mxCell id="_1LoRcHpuMIzXkS6uosu-17" value="" style="edgeStyle=none;rounded=0;orthogonalLoop=1;jettySize=auto;html=1;" edge="1" parent="1" target="_1LoRcHpuMIzXkS6uosu-13">
          <mxGeometry relative="1" as="geometry">
            <mxPoint x="-167.75" y="-45.91208791208783" as="sourcePoint" />
            <mxPoint x="-87.75" y="24" as="targetPoint" />
          </mxGeometry>
        </mxCell>
        <mxCell id="_1LoRcHpuMIzXkS6uosu-38" value="" style="edgeStyle=none;rounded=0;orthogonalLoop=1;jettySize=auto;html=1;entryX=0;entryY=0.5;entryDx=0;entryDy=0;" edge="1" parent="1" source="_1LoRcHpuMIzXkS6uosu-11" target="_1LoRcHpuMIzXkS6uosu-74">
          <mxGeometry relative="1" as="geometry">
            <mxPoint x="1060.2499999999995" y="33.99999999999977" as="targetPoint" />
          </mxGeometry>
        </mxCell>
        <mxCell id="_1LoRcHpuMIzXkS6uosu-40" value="" style="edgeStyle=none;rounded=0;orthogonalLoop=1;jettySize=auto;html=1;entryX=0;entryY=0.75;entryDx=0;entryDy=0;exitX=0.75;exitY=0;exitDx=0;exitDy=0;" edge="1" parent="1" source="_1LoRcHpuMIzXkS6uosu-11" target="_1LoRcHpuMIzXkS6uosu-24">
          <mxGeometry relative="1" as="geometry">
            <mxPoint x="1060.2499999999995" y="33.99999999999977" as="targetPoint" />
          </mxGeometry>
        </mxCell>
        <mxCell id="_1LoRcHpuMIzXkS6uosu-42" value="" style="edgeStyle=none;rounded=0;orthogonalLoop=1;jettySize=auto;html=1;" edge="1" parent="1" source="_1LoRcHpuMIzXkS6uosu-11" target="_1LoRcHpuMIzXkS6uosu-26">
          <mxGeometry relative="1" as="geometry">
            <mxPoint x="1060.2499999999995" y="33.99999999999977" as="targetPoint" />
          </mxGeometry>
        </mxCell>
        <mxCell id="_1LoRcHpuMIzXkS6uosu-11" value="Prop Acquirer" style="shape=image;html=1;verticalAlign=top;verticalLabelPosition=bottom;labelBackgroundColor=#ffffff;imageAspect=0;aspect=fixed;image=https://cdn1.iconfinder.com/data/icons/picons-social/57/social_amex_round-128.png" vertex="1" parent="1">
          <mxGeometry x="822.25" y="-79" width="128" height="128" as="geometry" />
        </mxCell>
        <mxCell id="_1LoRcHpuMIzXkS6uosu-23" value="" style="edgeStyle=none;rounded=0;orthogonalLoop=1;jettySize=auto;html=1;entryX=0.027;entryY=0.317;entryDx=0;entryDy=0;entryPerimeter=0;" edge="1" parent="1" source="_1LoRcHpuMIzXkS6uosu-13" target="_1LoRcHpuMIzXkS6uosu-118">
          <mxGeometry relative="1" as="geometry">
            <mxPoint x="650.25" y="-36" as="targetPoint" />
          </mxGeometry>
        </mxCell>
        <mxCell id="_1LoRcHpuMIzXkS6uosu-83" value="" style="edgeStyle=none;rounded=0;orthogonalLoop=1;jettySize=auto;html=1;entryX=0;entryY=0.5;entryDx=0;entryDy=0;exitX=1;exitY=0.5;exitDx=0;exitDy=0;" edge="1" parent="1" source="_1LoRcHpuMIzXkS6uosu-94" target="_1LoRcHpuMIzXkS6uosu-24">
          <mxGeometry relative="1" as="geometry">
            <mxPoint x="955.25" y="-471" as="sourcePoint" />
            <mxPoint x="640.2499999999995" y="-252.50000000000023" as="targetPoint" />
          </mxGeometry>
        </mxCell>
        <mxCell id="_1LoRcHpuMIzXkS6uosu-13" value="Acceptance thru Universal &lt;br&gt;Payment Provider&lt;br&gt;(First Data)" style="shape=image;html=1;verticalAlign=top;verticalLabelPosition=bottom;labelBackgroundColor=#ffffff;imageAspect=0;aspect=fixed;image=https://cdn0.iconfinder.com/data/icons/maternity-and-pregnancy-2/512/169_Machine_Business_card_check_credit_card_credit_card_machine_payment-128.png" vertex="1" parent="1">
          <mxGeometry x="78.25" y="-320" width="128" height="128" as="geometry" />
        </mxCell>
        <mxCell id="_1LoRcHpuMIzXkS6uosu-20" value="" style="edgeStyle=none;rounded=0;orthogonalLoop=1;jettySize=auto;html=1;entryX=0;entryY=0.5;entryDx=0;entryDy=0;" edge="1" parent="1" source="_1LoRcHpuMIzXkS6uosu-18" target="_1LoRcHpuMIzXkS6uosu-13">
          <mxGeometry relative="1" as="geometry">
            <mxPoint x="-129.75" y="-116.00000000000023" as="targetPoint" />
          </mxGeometry>
        </mxCell>
        <mxCell id="_1LoRcHpuMIzXkS6uosu-18" value="" style="shape=image;html=1;verticalAlign=top;verticalLabelPosition=bottom;labelBackgroundColor=#ffffff;imageAspect=0;aspect=fixed;image=https://cdn3.iconfinder.com/data/icons/logos-and-brands-adobe/512/206_Mastercard_Credit_Card-128.png" vertex="1" parent="1">
          <mxGeometry x="-265.75" y="-290" width="68" height="68" as="geometry" />
        </mxCell>
        <mxCell id="_1LoRcHpuMIzXkS6uosu-52" value="" style="edgeStyle=none;rounded=0;orthogonalLoop=1;jettySize=auto;html=1;" edge="1" parent="1" source="_1LoRcHpuMIzXkS6uosu-24" target="_1LoRcHpuMIzXkS6uosu-50">
          <mxGeometry relative="1" as="geometry">
            <mxPoint x="1470.25" y="-129.5" as="targetPoint" />
          </mxGeometry>
        </mxCell>
        <mxCell id="_1LoRcHpuMIzXkS6uosu-24" value="" style="shape=image;html=1;verticalAlign=top;verticalLabelPosition=bottom;labelBackgroundColor=none;imageAspect=0;aspect=fixed;image=https://cdn3.iconfinder.com/data/icons/circle-payment-methods-4/512/Visa-128.png" vertex="1" parent="1">
          <mxGeometry x="1307.25" y="-530" width="118" height="118" as="geometry" />
        </mxCell>
        <mxCell id="_1LoRcHpuMIzXkS6uosu-54" value="" style="edgeStyle=none;rounded=0;orthogonalLoop=1;jettySize=auto;html=1;entryX=0;entryY=0.5;entryDx=0;entryDy=0;" edge="1" parent="1" source="_1LoRcHpuMIzXkS6uosu-26" target="_1LoRcHpuMIzXkS6uosu-49">
          <mxGeometry relative="1" as="geometry">
            <mxPoint x="1480.25" y="-396" as="targetPoint" />
          </mxGeometry>
        </mxCell>
        <mxCell id="_1LoRcHpuMIzXkS6uosu-26" value="" style="shape=image;html=1;verticalAlign=top;verticalLabelPosition=bottom;labelBackgroundColor=#ffffff;imageAspect=0;aspect=fixed;image=https://cdn1.iconfinder.com/data/icons/picons-social/57/social_mastercard_round-128.png" vertex="1" parent="1">
          <mxGeometry x="1302.25" y="-316.5" width="128" height="128" as="geometry" />
        </mxCell>
        <mxCell id="_1LoRcHpuMIzXkS6uosu-33" value="" style="edgeStyle=none;rounded=0;orthogonalLoop=1;jettySize=auto;html=1;entryX=0;entryY=0.25;entryDx=0;entryDy=0;" edge="1" parent="1" source="_1LoRcHpuMIzXkS6uosu-31" target="_1LoRcHpuMIzXkS6uosu-13">
          <mxGeometry relative="1" as="geometry">
            <mxPoint x="-124.25" y="-202.5" as="targetPoint" />
          </mxGeometry>
        </mxCell>
        <mxCell id="_1LoRcHpuMIzXkS6uosu-31" value="" style="shape=image;html=1;verticalAlign=top;verticalLabelPosition=bottom;labelBackgroundColor=#ffffff;imageAspect=0;aspect=fixed;image=https://cdn3.iconfinder.com/data/icons/logos-and-brands-adobe/512/363_Visa_Credit_Card-128.png" vertex="1" parent="1">
          <mxGeometry x="-265.75" y="-530" width="71.5" height="71.5" as="geometry" />
        </mxCell>
        <mxCell id="_1LoRcHpuMIzXkS6uosu-46" value="" style="edgeStyle=none;rounded=0;orthogonalLoop=1;jettySize=auto;html=1;" edge="1" parent="1" source="_1LoRcHpuMIzXkS6uosu-34" target="_1LoRcHpuMIzXkS6uosu-44">
          <mxGeometry relative="1" as="geometry">
            <mxPoint x="1465.25" y="144" as="targetPoint" />
          </mxGeometry>
        </mxCell>
        <mxCell id="_1LoRcHpuMIzXkS6uosu-34" value="Prop Network Association" style="shape=image;html=1;verticalAlign=top;verticalLabelPosition=bottom;labelBackgroundColor=none;imageAspect=0;aspect=fixed;image=https://cdn1.iconfinder.com/data/icons/picons-social/57/social_amex_round-128.png" vertex="1" parent="1">
          <mxGeometry x="1302.25" y="218" width="128" height="128" as="geometry" />
        </mxCell>
        <mxCell id="_1LoRcHpuMIzXkS6uosu-43" value="&lt;p class=&quot;p1&quot; style=&quot;margin: 0px ; font-stretch: normal ; line-height: normal ; font-family: &amp;#34;helvetica neue&amp;#34;&quot;&gt;The acquirer sends the transaction information to the payment-card network,&amp;nbsp;&lt;/p&gt;&lt;p class=&quot;p1&quot; style=&quot;margin: 0px ; font-stretch: normal ; line-height: normal ; font-family: &amp;#34;helvetica neue&amp;#34;&quot;&gt;which acts as an intermediary between the payment-card processing company&amp;nbsp;&lt;/p&gt;&lt;p class=&quot;p1&quot; style=&quot;margin: 0px ; font-stretch: normal ; line-height: normal ; font-family: &amp;#34;helvetica neue&amp;#34;&quot;&gt;and the issuer of the customer&#39;s card.&lt;/p&gt;" style="text;html=1;align=center;verticalAlign=middle;resizable=0;points=[];autosize=1;" vertex="1" parent="1">
          <mxGeometry x="960" y="-46" width="440" height="50" as="geometry" />
        </mxCell>
        <mxCell id="_1LoRcHpuMIzXkS6uosu-44" value="Prop Issuer Bank" style="shape=image;html=1;verticalAlign=top;verticalLabelPosition=bottom;labelBackgroundColor=none;imageAspect=0;aspect=fixed;image=https://cdn1.iconfinder.com/data/icons/picons-social/57/social_amex_round-128.png" vertex="1" parent="1">
          <mxGeometry x="1692.25" y="218" width="128" height="128" as="geometry" />
        </mxCell>
        <mxCell id="_1LoRcHpuMIzXkS6uosu-47" value="&lt;p class=&quot;p1&quot; style=&quot;margin: 0px ; font-stretch: normal ; line-height: normal ; font-family: &amp;#34;helvetica neue&amp;#34;&quot;&gt;The transaction information&amp;nbsp;&lt;/p&gt;&lt;p class=&quot;p1&quot; style=&quot;margin: 0px ; font-stretch: normal ; line-height: normal ; font-family: &amp;#34;helvetica neue&amp;#34;&quot;&gt;is sent to a payment card processing company.&amp;nbsp;&lt;/p&gt;&lt;p class=&quot;p1&quot; style=&quot;margin: 0px ; font-stretch: normal ; line-height: normal ; font-family: &amp;#34;helvetica neue&amp;#34;&quot;&gt;These companies are also called &quot;merchant acquirers&quot;&amp;nbsp;&lt;/p&gt;&lt;p class=&quot;p1&quot; style=&quot;margin: 0px ; font-stretch: normal ; line-height: normal ; font-family: &amp;#34;helvetica neue&amp;#34;&quot;&gt;and can be banks or other financial institutions.&lt;/p&gt;" style="text;html=1;align=center;verticalAlign=middle;resizable=0;points=[];autosize=1;" vertex="1" parent="1">
          <mxGeometry x="440" y="-40" width="310" height="60" as="geometry" />
        </mxCell>
        <mxCell id="_1LoRcHpuMIzXkS6uosu-49" value="Card Issuer Bank&lt;br&gt;(BoA)" style="shape=image;html=1;verticalAlign=top;verticalLabelPosition=bottom;labelBackgroundColor=#ffffff;imageAspect=0;aspect=fixed;image=https://cdn0.iconfinder.com/data/icons/elasto-online-store/26/00-ELASTOFONT-STORE-READY_bank-128.png" vertex="1" parent="1">
          <mxGeometry x="1692.25" y="-316.5" width="128" height="128" as="geometry" />
        </mxCell>
        <mxCell id="_1LoRcHpuMIzXkS6uosu-50" value="Card Issuer Bank&lt;br&gt;(JPMC)" style="shape=image;html=1;verticalAlign=top;verticalLabelPosition=bottom;labelBackgroundColor=#ffffff;imageAspect=0;aspect=fixed;image=https://cdn0.iconfinder.com/data/icons/elasto-online-store/26/00-ELASTOFONT-STORE-READY_bank-128.png" vertex="1" parent="1">
          <mxGeometry x="1682.25" y="-533" width="128" height="128" as="geometry" />
        </mxCell>
        <mxCell id="_1LoRcHpuMIzXkS6uosu-62" value="&lt;p class=&quot;p1&quot; style=&quot;margin: 0px ; font-stretch: normal ; line-height: normal ; font-family: &amp;#34;helvetica neue&amp;#34;&quot;&gt;A customer makes a purchase and&amp;nbsp;&lt;/p&gt;&lt;p class=&quot;p1&quot; style=&quot;margin: 0px ; font-stretch: normal ; line-height: normal ; font-family: &amp;#34;helvetica neue&amp;#34;&quot;&gt;the merchant uses a mobile, web or phone program, or a standard in-store terminal&amp;nbsp;&lt;/p&gt;&lt;p class=&quot;p1&quot; style=&quot;margin: 0px ; font-stretch: normal ; line-height: normal ; font-family: &amp;#34;helvetica neue&amp;#34;&quot;&gt;to collect the customer&#39;s payment card information.&lt;/p&gt;" style="text;html=1;align=center;verticalAlign=middle;resizable=0;points=[];autosize=1;" vertex="1" parent="1">
          <mxGeometry x="-167.75" y="-51" width="470" height="50" as="geometry" />
        </mxCell>
        <mxCell id="_1LoRcHpuMIzXkS6uosu-63" value="&lt;p class=&quot;p1&quot; style=&quot;margin: 0px ; font-stretch: normal ; line-height: normal ; font-family: &amp;#34;helvetica neue&amp;#34;&quot;&gt;The network sends the transaction information to the card issuer,&amp;nbsp;&lt;/p&gt;&lt;p class=&quot;p1&quot; style=&quot;margin: 0px ; font-stretch: normal ; line-height: normal ; font-family: &amp;#34;helvetica neue&amp;#34;&quot;&gt;who verifies the card and makes sure there are enough funds&amp;nbsp;&lt;/p&gt;&lt;p class=&quot;p1&quot; style=&quot;margin: 0px ; font-stretch: normal ; line-height: normal ; font-family: &amp;#34;helvetica neue&amp;#34;&quot;&gt;t&lt;span&gt;o cover the transaction amount before returning a decision - typically within seconds.&lt;/span&gt;&lt;/p&gt;" style="text;html=1;align=center;verticalAlign=middle;resizable=0;points=[];autosize=1;" vertex="1" parent="1">
          <mxGeometry x="1522.25" y="-40" width="480" height="50" as="geometry" />
        </mxCell>
        <mxCell id="_1LoRcHpuMIzXkS6uosu-69" value="" style="edgeStyle=none;rounded=0;orthogonalLoop=1;jettySize=auto;html=1;entryX=0;entryY=0.5;entryDx=0;entryDy=0;" edge="1" parent="1" source="_1LoRcHpuMIzXkS6uosu-64" target="_1LoRcHpuMIzXkS6uosu-67">
          <mxGeometry relative="1" as="geometry">
            <mxPoint x="1030.2499999999995" y="624" as="targetPoint" />
          </mxGeometry>
        </mxCell>
        <mxCell id="_1LoRcHpuMIzXkS6uosu-64" value="" style="shape=image;html=1;verticalAlign=top;verticalLabelPosition=bottom;labelBackgroundColor=#ffffff;imageAspect=0;aspect=fixed;image=https://cdn1.iconfinder.com/data/icons/picons-social/57/social_amex_round-128.png" vertex="1" parent="1">
          <mxGeometry x="822.25" y="560" width="128" height="128" as="geometry" />
        </mxCell>
        <mxCell id="_1LoRcHpuMIzXkS6uosu-73" value="" style="edgeStyle=none;rounded=0;orthogonalLoop=1;jettySize=auto;html=1;entryX=0;entryY=0.5;entryDx=0;entryDy=0;" edge="1" parent="1" source="_1LoRcHpuMIzXkS6uosu-67" target="_1LoRcHpuMIzXkS6uosu-81">
          <mxGeometry relative="1" as="geometry">
            <mxPoint x="1682.25" y="624" as="targetPoint" />
          </mxGeometry>
        </mxCell>
        <mxCell id="_1LoRcHpuMIzXkS6uosu-67" value="Network" style="shape=image;html=1;verticalAlign=top;verticalLabelPosition=bottom;labelBackgroundColor=#ffffff;imageAspect=0;aspect=fixed;image=https://cdn1.iconfinder.com/data/icons/picons-social/57/social_amex_round-128.png" vertex="1" parent="1">
          <mxGeometry x="1286.25" y="560" width="128" height="128" as="geometry" />
        </mxCell>
        <mxCell id="_1LoRcHpuMIzXkS6uosu-77" value="" style="edgeStyle=none;rounded=0;orthogonalLoop=1;jettySize=auto;html=1;entryX=0;entryY=0.5;entryDx=0;entryDy=0;" edge="1" parent="1" source="_1LoRcHpuMIzXkS6uosu-74" target="_1LoRcHpuMIzXkS6uosu-75">
          <mxGeometry relative="1" as="geometry">
            <mxPoint x="1505.25" y="174" as="targetPoint" />
          </mxGeometry>
        </mxCell>
        <mxCell id="_1LoRcHpuMIzXkS6uosu-74" value="GNS" style="shape=image;html=1;verticalAlign=top;verticalLabelPosition=bottom;labelBackgroundColor=none;imageAspect=0;aspect=fixed;image=https://cdn1.iconfinder.com/data/icons/picons-social/57/social_amex_round-128.png" vertex="1" parent="1">
          <mxGeometry x="1302.25" y="62" width="128" height="128" as="geometry" />
        </mxCell>
        <mxCell id="_1LoRcHpuMIzXkS6uosu-75" value="Card Issuer Bank&lt;br&gt;(BoA)" style="shape=image;html=1;verticalAlign=top;verticalLabelPosition=bottom;labelBackgroundColor=#ffffff;imageAspect=0;aspect=fixed;image=https://cdn0.iconfinder.com/data/icons/elasto-online-store/26/00-ELASTOFONT-STORE-READY_bank-128.png" vertex="1" parent="1">
          <mxGeometry x="1692.25" y="62" width="128" height="128" as="geometry" />
        </mxCell>
        <mxCell id="_1LoRcHpuMIzXkS6uosu-80" value="" style="edgeStyle=none;rounded=0;orthogonalLoop=1;jettySize=auto;html=1;entryX=0;entryY=0.5;entryDx=0;entryDy=0;exitX=0.75;exitY=1;exitDx=0;exitDy=0;" edge="1" parent="1" source="_1LoRcHpuMIzXkS6uosu-11" target="_1LoRcHpuMIzXkS6uosu-34">
          <mxGeometry relative="1" as="geometry">
            <mxPoint x="970.2499999999995" y="28.688279301745524" as="sourcePoint" />
            <mxPoint x="1307.25" y="264" as="targetPoint" />
          </mxGeometry>
        </mxCell>
        <mxCell id="_1LoRcHpuMIzXkS6uosu-81" value="Prop Issuer Bank" style="shape=image;html=1;verticalAlign=top;verticalLabelPosition=bottom;labelBackgroundColor=none;imageAspect=0;aspect=fixed;image=https://cdn1.iconfinder.com/data/icons/picons-social/57/social_amex_round-128.png" vertex="1" parent="1">
          <mxGeometry x="1692.25" y="560" width="128" height="128" as="geometry" />
        </mxCell>
        <mxCell id="_1LoRcHpuMIzXkS6uosu-84" value="" style="edgeStyle=none;rounded=0;orthogonalLoop=1;jettySize=auto;html=1;entryX=0;entryY=0.5;entryDx=0;entryDy=0;exitX=1;exitY=0.5;exitDx=0;exitDy=0;" edge="1" parent="1" source="_1LoRcHpuMIzXkS6uosu-95" target="_1LoRcHpuMIzXkS6uosu-26">
          <mxGeometry relative="1" as="geometry">
            <mxPoint x="965.25" y="-252.5" as="sourcePoint" />
            <mxPoint x="1312.25" y="-461.5" as="targetPoint" />
          </mxGeometry>
        </mxCell>
        <mxCell id="_1LoRcHpuMIzXkS6uosu-87" value="" style="edgeStyle=none;rounded=0;orthogonalLoop=1;jettySize=auto;html=1;entryX=-0.015;entryY=0.477;entryDx=0;entryDy=0;entryPerimeter=0;" edge="1" parent="1" source="_1LoRcHpuMIzXkS6uosu-113" target="_1LoRcHpuMIzXkS6uosu-119">
          <mxGeometry relative="1" as="geometry">
            <mxPoint x="560.2499999999995" y="-248.0136476426801" as="sourcePoint" />
            <mxPoint x="837.25" y="-252.5" as="targetPoint" />
          </mxGeometry>
        </mxCell>
        <mxCell id="_1LoRcHpuMIzXkS6uosu-88" value="" style="edgeStyle=none;rounded=0;orthogonalLoop=1;jettySize=auto;html=1;entryX=-0.008;entryY=0.499;entryDx=0;entryDy=0;entryPerimeter=0;" edge="1" parent="1" source="_1LoRcHpuMIzXkS6uosu-13" target="_1LoRcHpuMIzXkS6uosu-120">
          <mxGeometry relative="1" as="geometry">
            <mxPoint x="560.2499999999995" y="-269.8895781637716" as="sourcePoint" />
            <mxPoint x="837.25" y="-471" as="targetPoint" />
          </mxGeometry>
        </mxCell>
        <mxCell id="_1LoRcHpuMIzXkS6uosu-91" value="Merchant&lt;br&gt;Account setup &lt;br&gt;with Amex&lt;br&gt;(SE10)" style="text;html=1;align=center;verticalAlign=middle;resizable=0;points=[];autosize=1;" vertex="1" parent="1">
          <mxGeometry x="740" y="65" width="90" height="60" as="geometry" />
        </mxCell>
        <mxCell id="_1LoRcHpuMIzXkS6uosu-94" value="Acquirer Bank&lt;br&gt;(JPMC)" style="shape=image;html=1;verticalAlign=top;verticalLabelPosition=bottom;labelBackgroundColor=#ffffff;imageAspect=0;aspect=fixed;image=https://cdn0.iconfinder.com/data/icons/elasto-online-store/26/00-ELASTOFONT-STORE-READY_bank-128.png" vertex="1" parent="1">
          <mxGeometry x="822.25" y="-535" width="128" height="128" as="geometry" />
        </mxCell>
        <mxCell id="_1LoRcHpuMIzXkS6uosu-95" value="Non-Acquirer Bank&lt;br&gt;(First Data ISO )" style="shape=image;html=1;verticalAlign=top;verticalLabelPosition=bottom;labelBackgroundColor=#ffffff;imageAspect=0;aspect=fixed;image=https://cdn0.iconfinder.com/data/icons/elasto-online-store/26/00-ELASTOFONT-STORE-READY_bank-128.png" vertex="1" parent="1">
          <mxGeometry x="822.25" y="-316.5" width="128" height="128" as="geometry" />
        </mxCell>
        <mxCell id="_1LoRcHpuMIzXkS6uosu-99" value="" style="shape=image;html=1;verticalAlign=top;verticalLabelPosition=bottom;labelBackgroundColor=#ffffff;imageAspect=0;aspect=fixed;image=https://cdn0.iconfinder.com/data/icons/IS_credit-cards-full_final/128/american_express_platinum.png" vertex="1" parent="1">
          <mxGeometry x="-267.62" y="-67.75" width="71.75" height="71.75" as="geometry" />
        </mxCell>
        <mxCell id="_1LoRcHpuMIzXkS6uosu-103" value="Payment Provider&lt;br&gt;OR&lt;br&gt;Payment Gateway" style="ellipse;whiteSpace=wrap;html=1;labelBackgroundColor=none;fillColor=#dae8fc;strokeColor=none;fontStyle=1" vertex="1" parent="1">
          <mxGeometry x="366.25" y="-750" width="260" height="80" as="geometry" />
        </mxCell>
        <mxCell id="_1LoRcHpuMIzXkS6uosu-104" value="Payment Mode&lt;br&gt;Card or Non-card" style="ellipse;whiteSpace=wrap;html=1;labelBackgroundColor=none;fillColor=#dae8fc;strokeColor=none;fontStyle=1" vertex="1" parent="1">
          <mxGeometry x="-360" y="-750" width="260" height="80" as="geometry" />
        </mxCell>
        <mxCell id="_1LoRcHpuMIzXkS6uosu-105" value="Payment Processing Company&lt;br&gt;Acquirer Bank&lt;br&gt;Acquirer Non-Bank" style="ellipse;whiteSpace=wrap;html=1;labelBackgroundColor=none;fillColor=#dae8fc;strokeColor=none;fontStyle=1" vertex="1" parent="1">
          <mxGeometry x="772.25" y="-750" width="260" height="80" as="geometry" />
        </mxCell>
        <mxCell id="_1LoRcHpuMIzXkS6uosu-106" value="Card &lt;br&gt;Network&lt;br&gt;Association" style="ellipse;whiteSpace=wrap;html=1;labelBackgroundColor=none;fillColor=#dae8fc;strokeColor=none;fontStyle=1" vertex="1" parent="1">
          <mxGeometry x="1222.25" y="-750" width="260" height="80" as="geometry" />
        </mxCell>
        <mxCell id="_1LoRcHpuMIzXkS6uosu-107" value="Issuer&lt;br&gt;Bank" style="ellipse;whiteSpace=wrap;html=1;labelBackgroundColor=none;fillColor=#dae8fc;strokeColor=none;fontStyle=1" vertex="1" parent="1">
          <mxGeometry x="1602.25" y="-750" width="260" height="80" as="geometry" />
        </mxCell>
        <mxCell id="_1LoRcHpuMIzXkS6uosu-108" value="Authorization Flow" style="text;html=1;align=center;verticalAlign=middle;resizable=0;points=[];autosize=1;fontStyle=1;fontSize=20;" vertex="1" parent="1">
          <mxGeometry x="-990" y="-99" width="200" height="30" as="geometry" />
        </mxCell>
        <mxCell id="_1LoRcHpuMIzXkS6uosu-109" value="Submission Flow" style="text;html=1;align=center;verticalAlign=middle;resizable=0;points=[];autosize=1;fontStyle=1;fontSize=20;" vertex="1" parent="1">
          <mxGeometry x="-981" y="595" width="180" height="30" as="geometry" />
        </mxCell>
        <mxCell id="_1LoRcHpuMIzXkS6uosu-110" value="Settlement Flow" style="text;html=1;align=center;verticalAlign=middle;resizable=0;points=[];autosize=1;fontStyle=1;fontSize=20;" vertex="1" parent="1">
          <mxGeometry x="-975" y="952" width="170" height="30" as="geometry" />
        </mxCell>
        <mxCell id="_1LoRcHpuMIzXkS6uosu-114" value="Point of Sale Terminal&lt;br&gt;at Merchant" style="ellipse;whiteSpace=wrap;html=1;labelBackgroundColor=none;fillColor=#dae8fc;strokeColor=none;fontStyle=1" vertex="1" parent="1">
          <mxGeometry x="12.25" y="-750" width="260" height="80" as="geometry" />
        </mxCell>
        <mxCell id="_1LoRcHpuMIzXkS6uosu-113" value="" style="image;html=1;labelBackgroundColor=#ffffff;image=img/lib/clip_art/networking/Cloud_128x128.png" vertex="1" parent="1">
          <mxGeometry x="270.25" y="-421.75" width="400" height="338.5" as="geometry" />
        </mxCell>
        <mxCell id="_1LoRcHpuMIzXkS6uosu-115" value="" style="edgeStyle=none;rounded=0;orthogonalLoop=1;jettySize=auto;html=1;entryX=0;entryY=0.5;entryDx=0;entryDy=0;" edge="1" parent="1" source="_1LoRcHpuMIzXkS6uosu-13" target="_1LoRcHpuMIzXkS6uosu-113">
          <mxGeometry relative="1" as="geometry">
            <mxPoint x="206.25" y="-256" as="sourcePoint" />
            <mxPoint x="822.25" y="-256" as="targetPoint" />
          </mxGeometry>
        </mxCell>
        <mxCell id="_1LoRcHpuMIzXkS6uosu-118" value="" style="verticalLabelPosition=bottom;verticalAlign=top;html=1;shape=mxgraph.basic.arc;strokeColor=#10739E;strokeWidth=6;startAngle=0.6024163823495667;endAngle=0.9076470340296227;labelBackgroundColor=none;fontSize=20;" vertex="1" parent="1">
          <mxGeometry x="782.25" y="-120" width="240" height="230" as="geometry" />
        </mxCell>
        <mxCell id="_1LoRcHpuMIzXkS6uosu-119" value="" style="verticalLabelPosition=bottom;verticalAlign=top;html=1;shape=mxgraph.basic.arc;strokeColor=#10739E;strokeWidth=6;startAngle=0.6024163823495667;endAngle=0.9076470340296227;labelBackgroundColor=none;fontSize=20;" vertex="1" parent="1">
          <mxGeometry x="782.25" y="-350" width="240" height="230" as="geometry" />
        </mxCell>
        <mxCell id="_1LoRcHpuMIzXkS6uosu-120" value="" style="verticalLabelPosition=bottom;verticalAlign=top;html=1;shape=mxgraph.basic.arc;strokeColor=#10739E;strokeWidth=6;startAngle=0.6024163823495667;endAngle=0.9076470340296227;labelBackgroundColor=none;fontSize=20;" vertex="1" parent="1">
          <mxGeometry x="782.25" y="-570" width="240" height="230" as="geometry" />
        </mxCell>
        <mxCell id="_1LoRcHpuMIzXkS6uosu-121" value="Merchant&lt;br&gt;Account setup &lt;br&gt;with FirstData" style="text;html=1;align=center;verticalAlign=middle;resizable=0;points=[];autosize=1;" vertex="1" parent="1">
          <mxGeometry x="720" y="-180" width="90" height="50" as="geometry" />
        </mxCell>
        <mxCell id="_1LoRcHpuMIzXkS6uosu-122" value="Merchant&lt;br&gt;Account setup &lt;br&gt;with JPMC" style="text;html=1;align=center;verticalAlign=middle;resizable=0;points=[];autosize=1;" vertex="1" parent="1">
          <mxGeometry x="700" y="-420" width="90" height="50" as="geometry" />
        </mxCell>
        <mxCell id="_1LoRcHpuMIzXkS6uosu-123" value="" style="verticalLabelPosition=bottom;verticalAlign=top;html=1;shape=mxgraph.basic.arc;strokeColor=#10739E;strokeWidth=6;startAngle=0.6024163823495667;endAngle=0.9076470340296227;labelBackgroundColor=none;fontSize=20;" vertex="1" parent="1">
          <mxGeometry x="792.25" y="510" width="240" height="230" as="geometry" />
        </mxCell>
      </root>
    </mxGraphModel>
  </diagram>
</mxfile>
